<?xml version="1.0" encoding="UTF-8" standalone="no"?>
<svg
   version="1.1"
   width="1000"
   height="1000"
   id="svg724"
   sodipodi:docname="triad.svg"
   inkscape:version="1.2.2 (b0a8486541, 2022-12-01)"
   xmlns:inkscape="http://www.inkscape.org/namespaces/inkscape"
   xmlns:sodipodi="http://sodipodi.sourceforge.net/DTD/sodipodi-0.dtd"
   xmlns:xlink="http://www.w3.org/1999/xlink"
   xmlns="http://www.w3.org/2000/svg"
   xmlns:svg="http://www.w3.org/2000/svg">
  <defs
     id="defs728">
    <linearGradient
       inkscape:collect="always"
       id="linearGradient1429">
      <stop
         style="stop-color:#000024;stop-opacity:1;"
         offset="0"
         id="stop1425" />
      <stop
         style="stop-color:#494992;stop-opacity:1;"
         offset="1"
         id="stop1427" />
    </linearGradient>
    <inkscape:path-effect
       effect="fill_between_many"
       method="originald"
       linkedpaths="#path596,0,1|#path606,0,1|#path608,0,1"
       id="path-effect9301" />
    <inkscape:path-effect
       effect="fill_between_many"
       method="originald"
       linkedpaths="#path628,0,1|#path630,0,1|#path632,0,1|#path634,0,1|#path636,0,1|#path716,0,1|#path626,0,1|#path720,0,1|#path612,0,1|#path614,0,1|#path616,0,1|#path610,0,1|#path618,0,1|#path620,0,1|#path640,0,1|#path714,0,1"
       id="path-effect18924" />
    <inkscape:path-effect
       effect="fill_between_many"
       method="originald"
       linkedpaths="#layer2,0,1|"
       id="path-effect21525" />
    <inkscape:path-effect
       effect="fill_between_many"
       method="originald"
       linkedpaths="#path596,0,1|"
       id="path-effect21584" />
    <linearGradient
       inkscape:collect="always"
       xlink:href="#linearGradient1429"
       id="linearGradient1431"
       x1="140"
       y1="494.987"
       x2="860"
       y2="494.987"
       gradientUnits="userSpaceOnUse" />
  </defs>
  <sodipodi:namedview
     id="namedview726"
     pagecolor="#ffffff"
     bordercolor="#000000"
     borderopacity="0.25"
     inkscape:showpageshadow="2"
     inkscape:pageopacity="0.0"
     inkscape:pagecheckerboard="0"
     inkscape:deskcolor="#d1d1d1"
     showgrid="false"
     inkscape:zoom="1"
     inkscape:cx="333.5"
     inkscape:cy="645"
     inkscape:window-width="1600"
     inkscape:window-height="1124"
     inkscape:window-x="0"
     inkscape:window-y="0"
     inkscape:window-maximized="1"
     inkscape:current-layer="layer2"
     inkscape:lockguides="true" />
  <g
     id="ViewLayer_LineSet"
     inkscape:label="ViewLayer_LineSet">
    <g
       inkscape:groupmode="layer"
       id="layer2"
       inkscape:label="triad base">
      <path
         id="path24209"
         d="m 535.8395,150 v 0 h -35.83901 v 0 h -35.839 C 345.97076,356.6998 209.47769,595.4392 102.0195,783.359 v 0 0 c 16.01031,21.3458 32.01844,42.6933 48.02899,64.039 H 849.9525 v 0 c 16.28836,-21.7228 32.28451,-43.0437 48.028,-64.039 C 786.7853,588.8847 659.34385,366.003 535.8395,150 Z"
         style="display:inline;fill:#64331c;fill-opacity:1"
         inkscape:label="brownred beveled" />
      <path
         id="path596-3"
         style="display:none;fill:#64331c;fill-opacity:1;stroke-width:1.21951"
         d="M 65.592468,848.57953 H 934.40753 C 789.60456,589.76229 644.80214,330.94472 499.99999,72.126999 355.19745,330.94449 210.3951,589.7621 65.592468,848.57953 Z"
         inkscape:label="brownred" />
      <path
         id="path596"
         style="display:inline;fill:url(#linearGradient1431);fill-opacity:1"
         d="M 140,809.987 H 860 C 739.99962,599.98722 619.9997,389.98717 500,179.987 379.99997,389.98698 260.0001,599.98706 140,809.987 Z"
         inkscape:label="blue" />
    </g>
    <g
       inkscape:groupmode="layer"
       id="strokes"
       inkscape:label="triad spikes">
      <path
         id="path672"
         d="m 525.882,646.344 5,-8.661 5,-8.66 5,-8.66 5,-8.66 5,-8.661 2.2,-3.81 8.701,-4.93 8.701,-4.929 8.7,-4.93 8.701,-4.929 6.382,-3.616 7.321,6.812 7.321,6.812 7.321,6.812 7.321,6.812 7.321,6.812 7.321,6.813 7.32,6.812 7.321,6.812 7.321,6.812 7.321,6.812 7.321,6.812 7.321,6.812 7.321,6.812 7.321,6.812 7.321,6.812 7.321,6.812 7.32,6.812 7.321,6.812 7.321,6.813 7.321,6.812 7.321,6.812 7.321,6.812 7.321,6.812 7.321,6.812 7.321,6.812 7.321,6.812 7.321,6.812 7.32,6.812 7.321,6.812 7.321,6.812 2.717,2.528 -9.56,-2.934 -9.56,-2.934 -9.56,-2.934 -9.56,-2.934 -9.56,-2.934 -9.56,-2.935 -9.56,-2.934 -9.56,-2.934 -9.559,-2.934 -9.56,-2.934 -9.56,-2.934 -9.56,-2.934 -9.56,-2.934 -9.56,-2.934 -9.56,-2.934 -9.56,-2.934 -9.559,-2.934 -9.56,-2.934 -9.56,-2.934 -9.56,-2.934 -9.56,-2.934 -9.56,-2.934 -9.56,-2.934 -9.56,-2.935 -9.559,-2.934 -9.56,-2.934 -9.56,-2.934 -9.56,-2.934 -9.56,-2.934 -9.56,-2.934 -3.547,-1.089 -0.081,-9.999 -0.081,-10 -0.082,-9.999 -0.081,-10 -0.06,-7.335"
         style="fill:#ffcc00"
         inkscape:label="right spike bottom" />
      <path
         id="path688"
         d="m 566.95,654.35 5,-8.66 5,-8.66 3.6,-6.236 8.701,-4.929 8.7,-4.93 3.192,-1.808 7.32,6.813 7.321,6.812 7.321,6.812 7.321,6.812 7.321,6.812 7.321,6.812 7.321,6.812 7.321,6.812 7.321,6.812 7.321,6.812 7.32,6.812 7.321,6.812 7.321,6.812 7.321,6.813 7.321,6.812 1.358,1.263 -9.56,-2.934 -9.559,-2.934 -9.56,-2.934 -9.56,-2.934 -9.56,-2.934 -9.56,-2.934 -9.56,-2.934 -9.56,-2.934 -9.56,-2.934 -9.56,-2.934 -9.559,-2.934 -9.56,-2.934 -9.56,-2.934 -9.56,-2.934 -9.56,-2.934 -1.773,-0.545 -0.082,-9.999 -0.081,-10 -0.03,-3.668"
         style="fill:#ffff79;fill-opacity:1"
         inkscape:label="right spike top" />
      <path
         id="path696"
         d="m 446.924,599.243 5,8.661 5,8.66 5,8.66 5,8.66 5,8.661 2.2,3.81 -0.081,10 -0.082,9.999 -0.081,10 -0.081,10 -0.06,7.335 -9.56,2.934 -9.559,2.934 -9.56,2.934 -9.56,2.934 -9.56,2.934 -9.56,2.934 -9.56,2.934 -9.56,2.934 -9.56,2.934 -9.559,2.934 -9.56,2.935 -9.56,2.934 -9.56,2.934 -9.56,2.934 -9.56,2.934 -9.56,2.934 -9.56,2.934 -9.56,2.934 -9.559,2.934 -9.56,2.934 -9.56,2.934 -9.56,2.934 -9.56,2.934 -9.56,2.934 -9.56,2.934 -9.56,2.934 -9.559,2.934 -9.56,2.934 -9.56,2.935 -9.56,2.934 -3.547,1.088 7.321,-6.812 7.321,-6.812 7.321,-6.812 7.32,-6.812 7.321,-6.812 7.321,-6.812 7.321,-6.812 7.321,-6.812 7.321,-6.812 7.321,-6.813 7.321,-6.812 7.321,-6.812 7.321,-6.812 7.32,-6.812 7.321,-6.812 7.321,-6.812 7.321,-6.812 7.321,-6.812 7.321,-6.812 7.321,-6.812 7.321,-6.812 7.321,-6.812 7.321,-6.812 7.321,-6.813 7.32,-6.812 7.321,-6.812 7.321,-6.812 7.321,-6.812 7.321,-6.812 7.321,-6.812 2.716,-2.528 8.701,4.93 8.7,4.929 8.701,4.93 8.701,4.929 6.382,3.616"
         style="fill:#ffcc00"
         inkscape:label="left spike bottom" />
      <path
         id="path712"
         d="m 419.456,630.806 5,8.66 5,8.66 3.6,6.236 -0.081,9.999 -0.081,10 -0.03,3.668 -9.56,2.934 -9.56,2.934 -9.56,2.934 -9.56,2.934 -9.56,2.934 -9.559,2.934 -9.56,2.934 -9.56,2.934 -9.56,2.934 -9.56,2.934 -9.56,2.934 -9.56,2.934 -9.56,2.934 -9.559,2.934 -9.56,2.934 -1.774,0.545 7.321,-6.812 7.321,-6.812 7.321,-6.812 7.321,-6.813 7.321,-6.812 7.321,-6.812 7.32,-6.812 7.321,-6.812 7.321,-6.812 7.321,-6.812 7.321,-6.812 7.321,-6.812 7.321,-6.812 7.321,-6.812 7.321,-6.812 1.358,-1.264 8.7,4.929 8.701,4.93 3.191,1.808"
         style="fill:#ffff79;fill-opacity:1"
         inkscape:label="left spike top" />
      <path
         id="path648"
         d="m 527.193,554.413 h -10 -10 -10 -10 -10 -4.4 l -8.619,-5.07 -8.619,-5.07 -8.62,-5.07 -8.619,-5.07 -6.323,-3.72 2.239,-9.746 2.239,-9.746 2.239,-9.746 2.239,-9.746 2.239,-9.746 2.239,-9.746 2.239,-9.747 2.239,-9.746 2.239,-9.746 2.239,-9.746 2.239,-9.746 2.239,-9.746 2.239,-9.746 2.239,-9.746 2.239,-9.747 2.239,-9.746 2.239,-9.746 2.239,-9.746 2.239,-9.746 2.239,-9.746 2.239,-9.746 2.239,-9.746 2.239,-9.747 2.239,-9.746 2.239,-9.746 2.239,-9.746 2.238,-9.746 2.239,-9.746 2.239,-9.746 2.239,-9.746 0.831,-3.617 2.239,9.746 2.239,9.747 2.239,9.746 2.239,9.746 2.239,9.746 2.239,9.746 2.239,9.746 2.239,9.746 2.239,9.747 2.239,9.746 2.239,9.746 2.239,9.746 2.239,9.746 2.239,9.746 2.239,9.746 2.239,9.746 2.239,9.747 2.239,9.746 2.239,9.746 2.239,9.746 2.239,9.746 2.239,9.746 2.239,9.746 2.239,9.746 2.239,9.747 2.239,9.746 2.238,9.746 2.24,9.746 2.238,9.746 2.239,9.746 0.831,3.616 -8.619,5.071 -8.619,5.07 -8.62,5.07 -8.619,5.07 -6.323,3.719"
         style="display:inline;fill:#ffcc00"
         inkscape:label="upper spike bottom" />
      <path
         id="path664"
         d="m 513.593,514.844 h -10 -10 -7.2 l -8.619,-5.07 -8.62,-5.07 -3.161,-1.86 2.239,-9.746 2.239,-9.746 2.239,-9.746 2.239,-9.746 2.239,-9.746 2.239,-9.746 2.239,-9.747 2.239,-9.746 2.239,-9.746 2.239,-9.746 2.239,-9.746 2.239,-9.746 2.239,-9.746 2.239,-9.746 2.239,-9.747 0.415,-1.808 2.239,9.746 2.239,9.747 2.239,9.746 2.239,9.746 2.239,9.746 2.239,9.746 2.239,9.746 2.239,9.746 2.239,9.746 2.239,9.747 2.239,9.746 2.239,9.746 2.239,9.746 2.239,9.746 2.239,9.746 0.415,1.808 -8.619,5.071 -8.619,5.07 -3.162,1.859"
         style="display:inline;fill:#ffff79;fill-opacity:1"
         inkscape:label="upper spike top" />
    </g>
  </g>
</svg>
